<svg width="46" height="46" viewBox="0 0 46 46" fill="none" xmlns="http://www.w3.org/2000/svg">
<g clip-path="url(#clip0_472_7305)">
<rect width="46" height="46" fill="white" fill-opacity="0.01"/>
<path fill-rule="evenodd" clip-rule="evenodd" d="M5.75 0H40.25C41.775 0 43.2375 0.605802 44.3159 1.68414C45.3942 2.76247 46 4.22501 46 5.75V40.25C46 41.775 45.3942 43.2375 44.3159 44.3159C43.2375 45.3942 41.775 46 40.25 46H5.75C4.22501 46 2.76247 45.3942 1.68414 44.3159C0.605802 43.2375 0 41.775 0 40.25L0 5.75C0 4.22501 0.605802 2.76247 1.68414 1.68414C2.76247 0.605802 4.22501 0 5.75 0V0ZM34.8603 18.0167H28.9896V9.2C28.9873 8.498 28.7718 7.81326 28.3716 7.23651C27.9714 6.65977 27.4054 6.21826 26.7486 5.9705C26.0917 5.72273 25.3751 5.68041 24.6937 5.84915C24.0123 6.01788 23.3982 6.3897 22.9329 6.91533L22.5553 7.31783C22.3732 7.53633 22.3733 7.53633 21.9343 8.07875C20.0247 10.4353 18.1234 12.7986 16.2303 15.1685L16.0521 15.3927C9.94367 23.0575 9.58333 23.5252 9.58333 24.5333C9.58333 26.4692 11.1531 27.5981 12.9758 27.9067L13.2978 27.9335H18.9271V36.8C18.9271 38.7109 20.4892 40.25 22.402 40.25C23.2262 40.25 24.2477 39.7977 25.3153 38.7301L25.4552 38.571L25.9919 37.9002C27.8957 35.5116 29.7951 33.1196 31.6902 30.7242L31.7841 30.6072C33.204 28.8151 34.616 27.0166 36.0199 25.2118C36.6237 24.4318 37.0971 23.8146 37.4268 23.3718C37.6088 23.1284 37.7507 22.9329 37.8542 22.7853C37.9347 22.6665 37.9347 22.6665 38.0171 22.5362C38.1129 22.448 38.1129 22.448 38.3333 21.4667C38.3333 19.5557 36.7712 18.0167 34.8584 18.0167H34.8603ZM25.1562 21.85V10.1909C24.6036 10.8709 24.0522 11.552 23.5022 12.2341C22.0724 14.0049 20.6477 15.7797 19.228 17.5586L19.1379 17.6697L19.0497 17.7828C16.0348 21.5644 14.8005 23.1265 14.0741 24.1002H22.7604V35.8033L22.9942 35.5082C24.8955 33.1247 26.7923 30.7379 28.6848 28.3475L28.7768 28.2306C30.453 26.1125 32.118 23.9856 33.7717 21.85H25.1562V21.85Z" fill="#007C98"/>
</g>
<defs>
<clipPath id="clip0_472_7305">
<rect width="46" height="46" fill="white"/>
</clipPath>
</defs>
</svg>
