<svg width="47" height="47" viewBox="0 0 47 47" fill="none" xmlns="http://www.w3.org/2000/svg">
<g clip-path="url(#clip0_188_6634)">
<rect width="46" height="46" transform="translate(0.753662 0.271484)" fill="white" fill-opacity="0.01"/>
<path fill-rule="evenodd" clip-rule="evenodd" d="M25.6703 21.3548V9.85482C25.6703 9.34649 25.4684 8.85897 25.1089 8.49953C24.7495 8.14009 24.262 7.93815 23.7537 7.93815C23.2453 7.93815 22.7578 8.14009 22.3984 8.49953C22.0389 8.85897 21.837 9.34649 21.837 9.85482V21.3548H10.337C9.82866 21.3548 9.34115 21.5568 8.98171 21.9162C8.62226 22.2756 8.42033 22.7632 8.42033 23.2715C8.42033 23.7798 8.62226 24.2673 8.98171 24.6268C9.34115 24.9862 9.82866 25.1882 10.337 25.1882H21.837V36.6881C21.837 37.1965 22.0389 37.684 22.3984 38.0434C22.7578 38.4029 23.2453 38.6048 23.7537 38.6048C24.262 38.6048 24.7495 38.4029 25.1089 38.0434C25.4684 37.684 25.6703 37.1965 25.6703 36.6881V25.1882H37.1703C37.6787 25.1882 38.1662 24.9862 38.5256 24.6268C38.8851 24.2673 39.087 23.7798 39.087 23.2715C39.087 22.7632 38.8851 22.2756 38.5256 21.9162C38.1662 21.5568 37.6787 21.3548 37.1703 21.3548H25.6703ZM6.50366 0.271484H41.0037C42.5287 0.271484 43.9912 0.877286 45.0695 1.95562C46.1479 3.03395 46.7537 4.49649 46.7537 6.02148V40.5215C46.7537 42.0465 46.1479 43.509 45.0695 44.5873C43.9912 45.6657 42.5287 46.2715 41.0037 46.2715H6.50366C4.97867 46.2715 3.51613 45.6657 2.4378 44.5873C1.35946 43.509 0.753662 42.0465 0.753662 40.5215L0.753662 6.02148C0.753662 4.49649 1.35946 3.03395 2.4378 1.95562C3.51613 0.877286 4.97867 0.271484 6.50366 0.271484V0.271484Z" fill="url(#paint0_linear_188_6634)"/>
</g>
<defs>
<linearGradient id="paint0_linear_188_6634" x1="23.7537" y1="0.271484" x2="23.7537" y2="46.2715" gradientUnits="userSpaceOnUse">
<stop stop-color="#0052CC"/>
<stop offset="1" stop-color="#2684FF"/>
</linearGradient>
<clipPath id="clip0_188_6634">
<rect width="46" height="46" fill="white" transform="translate(0.753662 0.271484)"/>
</clipPath>
</defs>
</svg>
