<svg width="47" height="47" viewBox="0 0 47 47" fill="none" xmlns="http://www.w3.org/2000/svg">
<g clip-path="url(#clip0_188_6643)">
<rect width="46" height="46" transform="translate(0.94873 0.271484)" fill="white" fill-opacity="0.01"/>
<path fill-rule="evenodd" clip-rule="evenodd" d="M6.69873 0.271484H41.1987C42.7237 0.271484 44.1863 0.877286 45.2646 1.95562C46.3429 3.03395 46.9487 4.49649 46.9487 6.02148V40.5215C46.9487 42.0465 46.3429 43.509 45.2646 44.5873C44.1863 45.6657 42.7237 46.2715 41.1987 46.2715H6.69873C5.17374 46.2715 3.7112 45.6657 2.63287 44.5873C1.55453 43.509 0.94873 42.0465 0.94873 40.5215L0.94873 6.02148C0.94873 4.49649 1.55453 3.03395 2.63287 1.95562C3.7112 0.877286 5.17374 0.271484 6.69873 0.271484V0.271484ZM24.0062 38.6048H24.0081C24.564 38.6029 25.0853 38.3633 25.4495 37.9474L38.8106 22.6141C39.0799 22.3048 39.243 21.9173 39.2757 21.5084C39.3085 21.0996 39.2093 20.6911 38.9926 20.3428L34.2297 12.6762C34.0572 12.3996 33.8171 12.1715 33.5321 12.0132C33.2471 11.855 32.9265 11.7718 32.6006 11.7715H15.6572C15.0171 11.7715 14.4191 12.0916 14.0626 12.6225L8.9374 20.2892C8.70283 20.6404 8.59089 21.0594 8.61896 21.4809C8.64704 21.9023 8.81356 22.3027 9.09265 22.6198L22.5668 37.9532C22.9271 38.3671 23.4523 38.6048 24.0043 38.6048H24.0062Z" fill="#FF8B00"/>
</g>
<defs>
<clipPath id="clip0_188_6643">
<rect width="46" height="46" fill="white" transform="translate(0.94873 0.271484)"/>
</clipPath>
</defs>
</svg>
