<svg width="28" height="27" viewBox="0 0 28 27" fill="none" xmlns="http://www.w3.org/2000/svg">
<g clip-path="url(#clip0_493_7698)">
<rect x="0.580078" width="27" height="27" rx="13.5" fill="white" fill-opacity="0.01"/>
<path fill-rule="evenodd" clip-rule="evenodd" d="M15.2051 12.375V5.625C15.2051 5.32663 15.0866 5.04048 14.8756 4.8295C14.6646 4.61853 14.3784 4.5 14.0801 4.5C13.7817 4.5 13.4956 4.61853 13.2846 4.8295C13.0736 5.04048 12.9551 5.32663 12.9551 5.625V12.375H6.20508C5.90671 12.375 5.62056 12.4935 5.40958 12.7045C5.1986 12.9155 5.08008 13.2016 5.08008 13.5C5.08008 13.7984 5.1986 14.0845 5.40958 14.2955C5.62056 14.5065 5.90671 14.625 6.20508 14.625H12.9551V21.375C12.9551 21.6734 13.0736 21.9595 13.2846 22.1705C13.4956 22.3815 13.7817 22.5 14.0801 22.5C14.3784 22.5 14.6646 22.3815 14.8756 22.1705C15.0866 21.9595 15.2051 21.6734 15.2051 21.375V14.625H21.9551C22.2534 14.625 22.5396 14.5065 22.7506 14.2955C22.9616 14.0845 23.0801 13.7984 23.0801 13.5C23.0801 13.2016 22.9616 12.9155 22.7506 12.7045C22.5396 12.4935 22.2534 12.375 21.9551 12.375H15.2051ZM3.95508 0H24.2051C25.1002 0 25.9586 0.355579 26.5916 0.988515C27.2245 1.62145 27.5801 2.47989 27.5801 3.375V23.625C27.5801 24.5201 27.2245 25.3786 26.5916 26.0115C25.9586 26.6444 25.1002 27 24.2051 27H3.95508C3.05997 27 2.20153 26.6444 1.56859 26.0115C0.935657 25.3786 0.580078 24.5201 0.580078 23.625L0.580078 3.375C0.580078 2.47989 0.935657 1.62145 1.56859 0.988515C2.20153 0.355579 3.05997 0 3.95508 0V0Z" fill="#007C98"/>
</g>
<defs>
<clipPath id="clip0_493_7698">
<rect x="0.580078" width="27" height="27" rx="13.5" fill="white"/>
</clipPath>
</defs>
</svg>
