<svg width="249" height="211" viewBox="0 0 249 211" fill="none" xmlns="http://www.w3.org/2000/svg">
<g clip-path="url(#clip0_569_3519)">
<rect width="248.1" height="210.9" fill="white" fill-opacity="0.01"/>
<path d="M173.2 61.2998H22.2V210.95H173.2V61.2998Z" fill="#CFD4DB"/>
<path d="M173.3 61.2998H64.2V166.51H173.3V61.2998Z" fill="url(#paint0_linear_569_3519)"/>
<path d="M84.9 111.5H49.1V113.5H84.9V111.5Z" fill="white"/>
<path d="M84.9 99.5996H49.1V101.6H84.9V99.5996Z" fill="white"/>
<path d="M68.5 87.6997H49.1V89.6997H68.5V87.6997Z" fill="white"/>
<path d="M42.5 87.6997H38.1V89.6997H42.5V87.6997Z" fill="white"/>
<path d="M42.5 99.5996H38.1V101.6H42.5V99.5996Z" fill="white"/>
<path d="M42.5 111.5H38.1V113.5H42.5V111.5Z" fill="white"/>
<path d="M42.5 123.3H38.1V125.3H42.5V123.3Z" fill="white"/>
<path d="M42.5 135.2H38.1V137.2H42.5V135.2Z" fill="white"/>
<path d="M42.5 147H38.1V149H42.5V147Z" fill="white"/>
<path d="M42.5 158.9H38.1V160.9H42.5V158.9Z" fill="white"/>
<path d="M42.5 170.8H38.1V172.8H42.5V170.8Z" fill="white"/>
<path d="M42.5 182.6H38.1V184.6H42.5V182.6Z" fill="white"/>
<path d="M153.4 147H92.4V149H153.4V147Z" fill="white"/>
<path d="M85.6 147H49.1V149H85.6V147Z" fill="white"/>
<path d="M159.2 158.9H107.3V160.9H159.2V158.9Z" fill="white"/>
<path d="M100.6 158.9H68.5V160.9H100.6V158.9Z" fill="white"/>
<path d="M139.1 170.8H68.5V172.8H139.1V170.8Z" fill="white"/>
<path d="M117.1 182.6H87.9V184.6H117.1V182.6Z" fill="white"/>
<path d="M105.1 123.3H71.6V125.3H105.1V123.3Z" fill="white"/>
<path d="M105.1 135.2H71.6V137.2H105.1V135.2Z" fill="white"/>
<path d="M41.7 137.5C34.7438 137.488 27.9465 139.58 22.2 143.5V154.6C25.6924 150.741 30.2513 148.005 35.2994 146.738C40.3476 145.472 45.6581 145.731 50.5587 147.484C55.4592 149.237 59.7294 152.405 62.8287 156.586C65.928 160.768 67.717 165.775 67.9692 170.973C68.2214 176.172 66.9255 181.328 64.2456 185.79C61.5656 190.251 57.6221 193.818 52.9143 196.037C48.2065 198.256 42.9461 199.029 37.799 198.257C32.6519 197.485 27.8496 195.203 24 191.7L22.2 189.9V201C26.6954 204.021 31.8356 205.948 37.2092 206.626C42.5828 207.305 48.0407 206.716 53.1459 204.907C58.2511 203.098 62.8619 200.119 66.6093 196.208C70.3567 192.297 73.1366 187.564 74.7266 182.386C76.3166 177.209 76.6725 171.731 75.7658 166.391C74.859 161.051 72.7149 155.997 69.505 151.635C66.295 147.272 62.1084 143.722 57.2802 141.267C52.452 138.813 47.1162 137.523 41.7 137.5Z" fill="#CFD4DB"/>
<path d="M232 0H81V149.65H232V0Z" fill="url(#paint1_linear_569_3519)"/>
<path d="M143.7 50.1997H107.9V52.1997H143.7V50.1997Z" fill="#FFAB00"/>
<path d="M143.7 38.2998H107.9V40.2998H143.7V38.2998Z" fill="#0065FF"/>
<path d="M127.3 26.3999H107.9V28.3999H127.3V26.3999Z" fill="#E5E8EC"/>
<path d="M101.2 26.3999H96.8V28.3999H101.2V26.3999Z" fill="#E5E8EC"/>
<path d="M101.2 38.2998H96.8V40.2998H101.2V38.2998Z" fill="#E5E8EC"/>
<path d="M101.2 50.1997H96.8V52.1997H101.2V50.1997Z" fill="#E5E8EC"/>
<path d="M101.2 62H96.8V64H101.2V62Z" fill="#E5E8EC"/>
<path d="M101.2 73.8999H96.8V75.8999H101.2V73.8999Z" fill="#E5E8EC"/>
<path d="M101.2 85.6997H96.8V87.6997H101.2V85.6997Z" fill="#E5E8EC"/>
<path d="M101.2 97.6001H96.8V99.6001H101.2V97.6001Z" fill="#E5E8EC"/>
<path d="M101.2 109.5H96.8V111.5H101.2V109.5Z" fill="#E5E8EC"/>
<path d="M101.2 121.3H96.8V123.3H101.2V121.3Z" fill="#E5E8EC"/>
<path d="M212.1 85.6997H151.1V87.6997H212.1V85.6997Z" fill="#FFAB00"/>
<path d="M144.4 85.6997H107.9V87.6997H144.4V85.6997Z" fill="#E5E8EC"/>
<path d="M218 97.6001H166.1V99.6001H218V97.6001Z" fill="#FFAB00"/>
<path d="M159.3 97.6001H127.2V99.6001H159.3V97.6001Z" fill="#0065FF"/>
<path d="M197.8 109.5H127.2V111.5H197.8V109.5Z" fill="#0065FF"/>
<path d="M175.8 121.3H146.6V123.3H175.8V121.3Z" fill="#E5E8EC"/>
<path d="M163.9 62H130.4V64H163.9V62Z" fill="#E5E8EC"/>
<path d="M163.9 73.8999H130.4V75.8999H163.9V73.8999Z" fill="#E5E8EC"/>
<path opacity="0.5" d="M232 65.9998C227.57 60.7582 221.684 56.9481 215.089 55.0513C208.493 53.1545 201.483 53.2562 194.945 55.3435C188.407 57.4309 182.635 61.4101 178.358 66.778C174.082 72.1459 171.493 78.6614 170.92 85.5005C170.346 92.3396 171.814 99.1952 175.137 105.2C178.46 111.205 183.489 116.09 189.588 119.237C195.687 122.384 202.582 123.651 209.402 122.879C216.221 122.107 222.659 119.331 227.9 114.9C229.365 113.635 230.735 112.265 232 110.8V65.9998ZM205.5 114.7C200.298 114.7 195.213 113.157 190.888 110.267C186.563 107.378 183.193 103.27 181.202 98.4644C179.211 93.6587 178.691 88.3707 179.705 83.269C180.72 78.1673 183.225 73.4811 186.903 69.8029C190.581 66.1248 195.267 63.62 200.369 62.6052C205.471 61.5904 210.759 62.1112 215.565 64.1018C220.37 66.0924 224.478 69.4633 227.368 73.7883C230.258 78.1134 231.8 83.1982 231.8 88.3998C231.8 95.375 229.029 102.065 224.097 106.997C219.165 111.929 212.475 114.7 205.5 114.7Z" fill="#091E42"/>
<path d="M14.7673 186.983L-0.0819397 201.832L4.1607 206.075L19.0099 191.225L14.7673 186.983Z" fill="#0065FF"/>
<path d="M210.5 113.9C227.345 113.9 241 100.245 241 83.3999C241 66.5552 227.345 52.8999 210.5 52.8999C193.655 52.8999 180 66.5552 180 83.3999C180 100.245 193.655 113.9 210.5 113.9Z" fill="#344563"/>
<path d="M217.9 86.7998H178.7V92.7998H217.9V86.7998Z" fill="#FDC150"/>
<path d="M217.9 67.8999H182.7V73.8999H217.9V67.8999Z" fill="#FAFBFC"/>
<path opacity="0.5" d="M241 83.3997C241 82.2997 241 81.2997 240.9 80.1997C237.9 71.0931 231.428 63.5379 222.89 59.1753C214.352 54.8126 204.437 53.9949 195.3 56.8997C190.656 59.5691 186.797 63.4144 184.111 68.0488C181.425 72.6832 180.007 77.9432 180 83.2997C181.032 79.7861 182.752 76.513 185.061 73.6709C187.371 70.8289 190.222 68.4748 193.45 66.7458C196.678 65.0167 200.218 63.9473 203.863 63.5999C207.509 63.2524 211.187 63.6338 214.683 64.7219C218.18 65.81 221.425 67.583 224.229 69.9376C227.034 72.2923 229.341 75.1814 231.018 78.4368C232.695 81.6922 233.707 85.2488 233.996 88.8992C234.285 92.5497 233.844 96.2212 232.7 99.6997C231.735 102.716 230.282 105.553 228.4 108.1C232.302 105.271 235.479 101.558 237.669 97.2643C239.859 92.9709 241.001 88.2195 241 83.3997Z" fill="#091E42"/>
<path d="M210.5 116.9C203.874 116.9 197.397 114.935 191.888 111.254C186.379 107.573 182.086 102.341 179.55 96.2198C177.015 90.0985 176.351 83.3628 177.644 76.8644C178.936 70.366 182.127 64.3969 186.812 59.7118C191.497 55.0268 197.466 51.8362 203.964 50.5436C210.463 49.251 217.199 49.9144 223.32 52.45C229.441 54.9855 234.673 59.2793 238.354 64.7883C242.035 70.2974 244 76.7742 244 83.3999C244 92.2847 240.471 100.806 234.188 107.088C227.906 113.37 219.385 116.9 210.5 116.9ZM210.5 55.8999C205.061 55.8999 199.744 57.5128 195.222 60.5345C190.699 63.5562 187.175 67.8512 185.093 72.8761C183.012 77.9011 182.467 83.4304 183.528 88.7649C184.59 94.0994 187.209 98.9994 191.055 102.845C194.901 106.691 199.801 109.31 205.135 110.372C210.47 111.433 215.999 110.888 221.024 108.807C226.049 106.725 230.344 103.2 233.365 98.6781C236.387 94.1558 238 88.8389 238 83.3999C238 76.1065 235.103 69.1117 229.945 63.9545C224.788 58.7972 217.793 55.8999 210.5 55.8999Z" fill="#0065FF"/>
<path d="M38.8 197.5C55.6447 197.5 69.3 183.845 69.3 167C69.3 150.155 55.6447 136.5 38.8 136.5C21.9553 136.5 8.29999 150.155 8.29999 167C8.29999 183.845 21.9553 197.5 38.8 197.5Z" fill="#E5E8EC"/>
<path d="M53.2 179.9H35.4V185.9H53.2V179.9Z" fill="white"/>
<path d="M53.2 161.1H35.4V167.1H53.2V161.1Z" fill="white"/>
<path d="M52.4 142.2H35.4V148.2H52.4V142.2Z" fill="white"/>
<path opacity="0.2" d="M43.3 136.8C34.6261 137.088 26.3387 140.457 19.9244 146.303C13.5102 152.149 9.38896 160.09 8.29999 168.7C8.6357 174.729 10.7536 180.523 14.3852 185.347C18.0169 190.172 22.9989 193.809 28.7 195.8C25.5374 193.824 22.8082 191.227 20.677 188.167C18.5458 185.107 17.0568 181.646 16.3001 177.995C15.5433 174.343 15.5344 170.576 16.2739 166.921C17.0134 163.265 18.486 159.798 20.6027 156.728C22.7194 153.658 25.4364 151.048 28.5896 149.057C31.7428 147.066 35.2668 145.734 38.9488 145.143C42.6308 144.552 46.3945 144.712 50.0126 145.616C53.6308 146.519 57.0282 148.147 60 150.4C63.4648 152.744 66.3399 155.859 68.4 159.5C66.8892 153.679 63.7074 148.427 59.2471 144.394C54.7867 140.36 49.243 137.72 43.3 136.8Z" fill="#091E42"/>
<path d="M38.8 200.5C32.1743 200.5 25.6974 198.535 20.1884 194.854C14.6794 191.173 10.3856 185.941 7.85004 179.82C5.3145 173.699 4.65109 166.963 5.9437 160.464C7.2363 153.966 10.4269 147.997 15.1119 143.312C19.797 138.627 25.7661 135.436 32.2645 134.144C38.7628 132.851 45.4986 133.515 51.6199 136.05C57.7412 138.586 62.9732 142.879 66.6542 148.388C70.3353 153.897 72.3 160.374 72.3 167C72.3 175.885 68.7706 184.406 62.4881 190.688C56.2056 196.971 47.6848 200.5 38.8 200.5ZM38.8 139.5C33.361 139.5 28.0442 141.113 23.5218 144.135C18.9995 147.156 15.4747 151.451 13.3933 156.476C11.3119 161.501 10.7673 167.031 11.8284 172.365C12.8895 177.699 15.5086 182.6 19.3546 186.445C23.2005 190.291 28.1005 192.911 33.435 193.972C38.7695 195.033 44.2988 194.488 49.3238 192.407C54.3488 190.325 58.6437 186.801 61.6654 182.278C64.6872 177.756 66.3 172.439 66.3 167C66.3 159.707 63.4027 152.712 58.2454 147.555C53.0882 142.397 46.0935 139.5 38.8 139.5Z" fill="#0065FF"/>
<path d="M233.286 103.512L229.044 107.755L243.864 122.576L248.107 118.333L233.286 103.512Z" fill="#0065FF"/>
</g>
<defs>
<linearGradient id="paint0_linear_569_3519" x1="118.72" y1="166.51" x2="118.72" y2="16.8598" gradientUnits="userSpaceOnUse">
<stop stop-color="#E5E8EC" stop-opacity="0.1"/>
<stop offset="0.08" stop-color="#E1E4E9" stop-opacity="0.27"/>
<stop offset="0.18" stop-color="#DCE0E5" stop-opacity="0.46"/>
<stop offset="0.29" stop-color="#D8DCE2" stop-opacity="0.63"/>
<stop offset="0.4" stop-color="#D5D9DF" stop-opacity="0.76"/>
<stop offset="0.53" stop-color="#D2D7DD" stop-opacity="0.87"/>
<stop offset="0.66" stop-color="#D0D5DC" stop-opacity="0.94"/>
<stop offset="0.8" stop-color="#CFD4DB" stop-opacity="0.99"/>
<stop offset="1" stop-color="#CFD4DB"/>
</linearGradient>
<linearGradient id="paint1_linear_569_3519" x1="81.31" y1="149.99" x2="231.63" y2="-0.340001" gradientUnits="userSpaceOnUse">
<stop stop-color="#172B4D"/>
<stop offset="0.58" stop-color="#192D4E"/>
<stop offset="0.78" stop-color="#203354"/>
<stop offset="0.93" stop-color="#2B3D5C"/>
<stop offset="1" stop-color="#344563"/>
</linearGradient>
<clipPath id="clip0_569_3519">
<rect width="248.1" height="210.9" fill="white"/>
</clipPath>
</defs>
</svg>
