<svg width="191" height="191" viewBox="0 0 191 191" fill="none" xmlns="http://www.w3.org/2000/svg">
<rect width="191" height="191" rx="39" fill="#EC0E0E"/>
<g clip-path="url(#clip0_2444_2091)">
<path d="M97.1286 35.3069C95.9286 41.0402 94.9952 42.5069 93.3952 42.1069C92.1952 41.7069 85.9286 40.5069 79.2619 39.3069C72.7286 38.2402 65.6619 36.9069 63.6619 36.5069C60.5952 35.8402 60.0619 36.3736 59.2619 40.2402C58.8619 42.6402 58.0619 45.7069 57.7952 46.9069C57.3952 48.3736 57.7952 49.3069 58.8619 49.3069C59.7952 49.3069 62.8619 49.9736 65.7952 50.7736C70.8619 52.2402 70.8619 52.2402 70.1952 57.7069C68.8619 67.7069 57.2619 121.44 55.7952 124.24C54.7286 126.374 53.2619 126.774 48.1952 126.507C42.0619 126.107 42.0619 126.107 40.8619 131.04C40.1952 133.707 39.9286 136.774 40.3286 137.84C40.7286 138.907 46.4619 140.507 55.6619 141.974C63.6619 143.174 70.9952 144.774 71.7952 145.174C72.9952 145.974 72.9952 147.84 71.9286 152.64C71.1286 156.107 70.7286 159.174 70.8619 159.307C71.1286 159.44 74.7286 160.24 78.8619 160.907L86.4619 162.24L87.9286 155.307L89.3952 148.24L100.995 147.707C110.329 147.174 114.062 146.374 119.795 143.44C147.795 129.04 160.062 84.3736 142.195 61.1736C137.395 54.7736 124.729 47.1736 116.862 45.9736C112.462 45.1736 111.795 44.6402 112.329 42.1069C112.729 40.6402 113.529 37.1736 113.929 34.5069L114.862 29.7069L108.462 28.7736C98.8619 27.4402 98.8619 27.4402 97.1286 35.3069ZM112.595 59.9736C120.062 63.5736 124.062 69.9736 124.862 79.8402C126.729 100.774 116.062 125.974 102.995 131.574C98.5952 133.307 85.3952 133.707 80.4619 132.24C77.5286 131.174 76.5952 137.174 90.7286 69.4402L93.6619 55.7069L100.462 56.5069C104.195 57.0402 109.662 58.6402 112.595 59.9736Z" fill="white"/>
</g>
<defs>
<clipPath id="clip0_2444_2091">
<rect width="134.297" height="134.297" fill="white" transform="translate(28 28)"/>
</clipPath>
</defs>
</svg>
