<svg width="26" height="27" viewBox="0 0 26 27" fill="none" xmlns="http://www.w3.org/2000/svg">
<rect y="0.5" width="25.5237" height="25.5237" rx="12.7618" fill="#007C98"/>
<path d="M14.5118 15.5952V15.7118C16.034 15.9257 17.2895 16.3681 18.2784 17.0389C19.2674 17.7098 19.7618 18.473 19.7618 19.3285C19.7618 19.5813 19.6342 19.8 19.379 19.9848C19.1238 20.1695 18.8139 20.2618 18.4493 20.2618C18.0847 20.2618 17.7748 20.1695 17.5196 19.9848C17.2644 19.8 17.1368 19.5813 17.1368 19.3285C17.1368 18.9882 16.9409 18.6747 16.5489 18.3879C16.157 18.1011 15.6261 17.875 14.9562 17.7098C14.2862 17.5445 13.5548 17.4618 12.7618 17.4618C11.9689 17.4618 11.2374 17.5445 10.5675 17.7098C9.89757 17.875 9.36664 18.1011 8.97472 18.3879C8.58279 18.6747 8.38683 18.9882 8.38683 19.3285C8.38683 19.5813 8.25922 19.8 8.00401 19.9848C7.7488 20.1695 7.43891 20.2618 7.07433 20.2618C6.70974 20.2618 6.39985 20.1695 6.14464 19.9848C5.88943 19.8 5.76183 19.5813 5.76183 19.3285C5.76183 18.4632 6.25629 17.6976 7.24522 17.0316C8.23416 16.3657 9.48969 15.9257 11.0118 15.7118V15.5952C11.0118 15.3424 11.0984 15.1236 11.2716 14.9389C11.4448 14.7542 11.6498 14.6618 11.8868 14.6618V12.7952C11.8868 12.5424 11.9734 12.3236 12.1466 12.1389C12.3198 11.9542 12.5248 11.8618 12.7618 11.8618C13.2449 11.8618 13.6573 11.6795 13.9991 11.315C14.3409 10.9504 14.5118 10.5105 14.5118 9.99517C14.5118 9.4799 14.3409 9.03997 13.9991 8.67538C13.6573 8.3108 13.2449 8.12851 12.7618 8.12851C12.2788 8.12851 11.8663 8.3108 11.5245 8.67538C11.1827 9.03997 11.0118 9.4799 11.0118 9.99517C11.0118 10.248 10.9275 10.4667 10.7589 10.6514C10.5903 10.8361 10.3852 10.9285 10.1437 10.9285C9.90213 10.9285 9.69477 10.8361 9.52159 10.6514C9.34841 10.4667 9.26183 10.248 9.26183 9.99517C9.26183 8.96462 9.60362 8.08476 10.2872 7.35559C10.9708 6.62642 11.7957 6.26184 12.7618 6.26184C13.728 6.26184 14.5528 6.62642 15.2364 7.35559C15.92 8.08476 16.2618 8.96462 16.2618 9.99517C16.2618 10.8507 16.0157 11.6139 15.5235 12.2848C15.0314 12.9556 14.4025 13.398 13.6368 13.6118V14.6618C13.8829 14.6618 14.0903 14.7542 14.2589 14.9389C14.4275 15.1236 14.5118 15.3424 14.5118 15.5952Z" fill="#FFC835"/>
</svg>
