<svg width="191" height="191" viewBox="0 0 191 191" fill="none" xmlns="http://www.w3.org/2000/svg">
<path d="M0 39C0 17.4609 17.4609 0 39 0H152C173.539 0 191 17.4609 191 39V152C191 173.539 173.539 191 152 191H39C17.4609 191 0 173.539 0 152V39Z" fill="#F3F2F2"/>
<path d="M97.1286 35.307C95.9286 41.0403 94.9952 42.507 93.3952 42.107C92.1952 41.707 85.9286 40.507 79.2619 39.307C72.7286 38.2403 65.6619 36.907 63.6619 36.507C60.5952 35.8403 60.0619 36.3736 59.2619 40.2403C58.8619 42.6403 58.0619 45.707 57.7952 46.907C57.3952 48.3737 57.7952 49.307 58.8619 49.307C59.7952 49.307 62.8619 49.9736 65.7952 50.7736C70.8619 52.2403 70.8619 52.2403 70.1952 57.707C68.8619 67.707 57.2619 121.44 55.7952 124.24C54.7286 126.374 53.2619 126.774 48.1952 126.507C42.0619 126.107 42.0619 126.107 40.8619 131.04C40.1952 133.707 39.9286 136.774 40.3286 137.84C40.7286 138.907 46.4619 140.507 55.6619 141.974C63.6619 143.174 70.9952 144.774 71.7952 145.174C72.9952 145.974 72.9952 147.84 71.9286 152.64C71.1286 156.107 70.7286 159.174 70.8619 159.307C71.1286 159.44 74.7286 160.24 78.8619 160.907L86.4619 162.24L87.9286 155.307L89.3952 148.24L100.995 147.707C110.329 147.174 114.062 146.374 119.795 143.44C147.795 129.04 160.062 84.3737 142.195 61.1736C137.395 54.7736 124.729 47.1736 116.862 45.9737C112.462 45.1736 111.795 44.6403 112.329 42.107C112.729 40.6403 113.529 37.1736 113.929 34.507L114.862 29.707L108.462 28.7736C98.8619 27.4403 98.8619 27.4403 97.1286 35.307ZM112.595 59.9737C120.062 63.5737 124.062 69.9736 124.862 79.8403C126.729 100.774 116.062 125.974 102.995 131.574C98.5952 133.307 85.3952 133.707 80.4619 132.24C77.5286 131.174 76.5952 137.174 90.7286 69.4403L93.6619 55.707L100.462 56.507C104.195 57.0403 109.662 58.6403 112.595 59.9737Z" fill="#B5C0C2"/>
</svg>
