<svg width="106" height="106" viewBox="0 0 106 106" fill="none" xmlns="http://www.w3.org/2000/svg">
<rect width="105.111" height="105.111" fill="#E9E9E9"/>
<path d="M57.6807 59.3891V59.7307C62.1384 60.3571 65.8153 61.6526 68.7115 63.6172C71.6076 65.5818 73.0557 67.8168 73.0557 70.3224C73.0557 71.0627 72.682 71.7033 71.9346 72.2443C71.1872 72.7852 70.2797 73.0557 69.212 73.0557C68.1443 73.0557 67.2367 72.7852 66.4893 72.2443C65.7419 71.7033 65.3682 71.0627 65.3682 70.3224C65.3682 69.3259 64.7943 68.4076 63.6465 67.5677C62.4988 66.7278 60.9439 66.0658 58.982 65.5818C57.0201 65.0977 54.878 64.8557 52.5557 64.8557C50.2335 64.8557 48.0914 65.0977 46.1295 65.5818C44.1675 66.0658 42.6127 66.7278 41.4649 67.5677C40.3171 68.4076 39.7432 69.3259 39.7432 70.3224C39.7432 71.0627 39.3695 71.7033 38.6221 72.2443C37.8747 72.7852 36.9672 73.0557 35.8995 73.0557C34.8318 73.0557 33.9242 72.7852 33.1768 72.2443C32.4294 71.7033 32.0557 71.0627 32.0557 70.3224C32.0557 67.7884 33.5038 65.5462 36.4 63.5958C39.2961 61.6455 42.973 60.3571 47.4307 59.7307V59.3891C47.4307 58.6488 47.6843 58.0082 48.1915 57.4672C48.6986 56.9262 49.2992 56.6557 49.9932 56.6557V51.1891C49.9932 50.4488 50.2468 49.8082 50.754 49.2672C51.2611 48.7262 51.8617 48.4557 52.5557 48.4557C53.9704 48.4557 55.1783 47.9219 56.1793 46.8542C57.1802 45.7865 57.6807 44.4981 57.6807 42.9891C57.6807 41.48 57.1802 40.1917 56.1793 39.124C55.1783 38.0562 53.9704 37.5224 52.5557 37.5224C51.141 37.5224 49.9332 38.0562 48.9322 39.124C47.9312 40.1917 47.4307 41.48 47.4307 42.9891C47.4307 43.7293 47.1838 44.37 46.69 44.9109C46.1962 45.4519 45.5956 45.7224 44.8882 45.7224C44.1809 45.7224 43.5736 45.4519 43.0665 44.9109C42.5593 44.37 42.3057 43.7293 42.3057 42.9891C42.3057 39.971 43.3067 37.3943 45.3087 35.2589C47.3106 33.1234 49.7263 32.0557 52.5557 32.0557C55.3852 32.0557 57.8008 33.1234 59.8028 35.2589C61.8047 37.3943 62.8057 39.971 62.8057 42.9891C62.8057 45.4946 62.085 47.7297 60.6436 49.6943C59.2022 51.6589 57.3604 52.9543 55.1182 53.5807V56.6557C55.8389 56.6557 56.4462 56.9262 56.94 57.4672C57.4338 58.0082 57.6807 58.6488 57.6807 59.3891Z" fill="#C8C8C8"/>
</svg>
